# xmcd
#
# Track frame offsets:
#	150
#	19965
#	35230
#	52615
#	67565
#	86982
#
# Disc length: 1429 seconds
#
# Revision: 1
# Processed by: cddbd v1.5.1PL0 Copyright (c) Steve Scherf et al.
# Submitted via: audiograbber 1.83.01
#
DISCID=44059306
DTITLE=Stateliner - Stateliner
DYEAR=2004
DGENRE=Alt.-Country
TTITLE0=Untied
TTITLE1=Anyway
TTITLE2=Again
TTITLE3=Free
TTITLE4=Easy
TTITLE5=Nowhere Bound
EXTD=
EXTT0=
EXTT1=
EXTT2=
EXTT3=
EXTT4=
EXTT5=
PLAYORDER=
